<svg width="123" height="16" viewBox="0 0 123 16" fill="none" xmlns="http://www.w3.org/2000/svg">
<path id="Vector" d="M11.0134 0.322163H1.29162C1.02495 0.322163 0.935547 0.411564 0.935547 0.679772V15.3726C0.935547 15.6409 1.02495 15.7302 1.29162 15.7302H11.0319C11.2986 15.7302 11.3525 15.6409 11.3525 15.3726V14.568C11.3525 14.2983 11.2801 14.2089 11.0319 14.2089H2.66194V8.71523H10.6219C10.8885 8.71523 10.9779 8.62582 10.9779 8.35761V7.55145C10.9779 7.28324 10.8885 7.19383 10.6219 7.19383H2.66194V1.84355H11.0134C11.2631 1.84355 11.334 1.75414 11.334 1.48594V0.679772C11.3525 0.411564 11.2631 0.322163 11.0134 0.322163V0.322163ZM32.2727 0.322163H31.223C30.9564 0.322163 30.867 0.394607 30.867 0.681312V12.4208L20.6627 0.197306C20.5749 0.089406 20.5039 0.0354568 20.3791 0.0354568H20.2712C20.1124 0.0354568 20.077 0.0539548 20.077 0.215805V1.39653L21.8034 3.52524L31.9706 15.8212C32.0939 15.9445 32.1849 16 32.2912 16H32.3991C32.5224 16 32.5764 15.9815 32.5764 15.8212V0.661273C32.6119 0.393065 32.5409 0.322163 32.2727 0.322163V0.322163ZM47.9429 7.21233C45.5382 6.90713 43.5082 6.44162 43.5082 4.63507C43.5082 3.48979 44.2388 1.62929 47.5514 1.62929C49.082 1.62929 50.5248 2.12871 51.9305 3.07823C52.0199 3.14914 52.0908 3.16763 52.1263 3.16763C52.2342 3.16763 52.3221 3.07823 52.4115 2.91638L52.8215 2.23661C52.9093 2.02081 52.9448 1.879 52.7136 1.7526C51.0581 0.73372 49.5799 0.0878659 47.3371 0.0878659C43.0982 0.0878659 41.8172 2.98882 41.8172 4.68902C41.8172 7.60539 44.5949 8.33912 46.981 8.66128C49.8481 9.05434 51.4851 9.64625 51.4851 11.4713C51.4851 13.7619 49.3841 14.4231 47.3725 14.4231C45.734 14.4231 43.9198 13.9222 42.5109 12.9557C42.4398 12.9002 42.3529 12.8688 42.2627 12.8663C42.1548 12.8663 42.0839 12.9387 41.9945 13.0821L41.586 13.7788C41.4612 14.0301 41.4612 14.138 41.6754 14.2628C43.3309 15.4266 45.2716 15.963 47.5868 15.963C51.3433 15.963 53.1591 13.7619 53.1591 11.4158C53.1776 8.46397 50.7729 7.5869 47.9429 7.21233V7.21233ZM63.5406 0.322163H62.4893C62.2226 0.322163 62.1348 0.411564 62.1348 0.679772V15.3726C62.1348 15.6409 62.2226 15.7302 62.4893 15.7302H63.5406C63.8072 15.7302 63.8612 15.6409 63.8612 15.3726V0.679772C63.8781 0.411564 63.8072 0.322163 63.5406 0.322163ZM97.8342 0.322163H96.783C96.5163 0.322163 96.4284 0.411564 96.4284 0.679772V15.3726C96.4284 15.6409 96.5163 15.7302 96.783 15.7302H97.8342C98.1009 15.7302 98.1548 15.6409 98.1548 15.3726V0.679772C98.1548 0.411564 98.0824 0.322163 97.8342 0.322163ZM114.873 0.0369974C110.565 0.0369974 107.04 3.65164 107.04 8.0185C107.04 12.4023 110.565 16 114.873 16C119.183 15.9985 122.708 12.3838 122.708 8.0185C122.708 3.65164 119.183 0.0369974 114.873 0.0369974ZM114.873 14.4601C111.454 14.4601 108.785 11.311 108.785 8.01696C108.785 4.68902 111.456 1.57534 114.873 1.57534C118.327 1.57534 120.963 4.68902 120.963 8.0185C120.945 11.311 118.327 14.4617 114.875 14.4617L114.873 14.4601ZM20.0955 15.4081C20.0955 15.6408 20.1664 15.7133 20.3976 15.7133H21.27C21.5013 15.7133 21.5722 15.6408 21.5722 15.4081V5.35029L20.0939 3.52524V15.4096L20.0955 15.4081ZM73.8311 15.6763H74.8824C75.149 15.6763 75.2384 15.6054 75.2384 15.3187V3.57919L85.4411 15.8027C85.5305 15.9106 85.6014 15.963 85.7263 15.963H85.8342C85.993 15.963 86.0284 15.9461 86.0284 15.7842V14.6035L84.302 12.4732L74.1163 0.178807C73.993 0.0539516 73.9036 0 73.7957 0H73.6909C73.5675 0 73.5136 0.0184988 73.5136 0.178807V15.3372C73.5136 15.6239 73.5845 15.6763 73.8327 15.6763H73.8311ZM86.0284 0.590371C86.0284 0.359157 85.9575 0.286706 85.7263 0.286706H84.8539C84.6226 0.286706 84.5502 0.357616 84.5502 0.590371V10.6482L86.03 12.4732V0.590371H86.0284Z" fill="white"/>
</svg>
